<svg width="102" height="35" viewBox="0 0 102 35" fill="none" xmlns="http://www.w3.org/2000/svg">
<rect width="101.696" height="34.964" rx="5" fill="white"/>
<path d="M16.8065 4.03418C16.9073 3.99726 17.0159 3.99009 17.1203 4.01345C17.2247 4.03681 17.3209 4.0898 17.3984 4.16659C17.6232 4.37934 17.8185 4.62376 17.9787 4.89279C18.4668 5.64708 18.8511 6.44149 19.2585 7.23189C19.712 8.13464 20.1501 9.04139 20.5844 9.95617C20.7458 10.3092 20.9303 10.6503 21.0686 11.0154C21.0877 11.0673 21.0955 11.1231 21.0915 11.1786C21.0876 11.2341 21.0719 11.2879 21.0456 11.3364C20.7716 11.2867 20.5266 11.1286 20.3615 10.895L18.632 9.0133C18.3474 8.68362 18.0349 8.38148 17.6981 8.11056C17.618 8.03851 17.5205 7.9907 17.4161 7.97232C17.3118 7.95393 17.2047 7.96566 17.1063 8.00625C16.8517 8.22507 16.6634 8.51638 16.5644 8.84479C15.9572 10.3855 15.5267 11.9903 15.0041 13.5671C14.9045 13.8612 14.7757 14.1436 14.6198 14.4097C14.4482 14.6865 14.2022 14.9042 13.9126 15.0356C13.4932 15.2137 13.0615 15.3585 12.6213 15.4689C12.237 15.5692 11.8527 15.7016 11.4683 15.8019C10.9621 15.9255 10.467 16.0946 9.98871 16.3075C9.7837 16.3859 9.61568 16.544 9.51984 16.7488C9.50424 16.828 9.5058 16.9098 9.52442 16.9882C9.54304 17.0667 9.57825 17.1398 9.62745 17.2022C9.87557 17.4979 10.1644 17.7534 10.4845 17.9605C11.6912 18.8432 12.8903 19.7339 14.0971 20.6165C14.2711 20.7333 14.4203 20.8863 14.5352 21.0659C14.5736 21.1381 14.6005 21.2505 14.5352 21.3106C14.478 21.3467 14.4139 21.369 14.3474 21.376C14.2809 21.3829 14.2138 21.3743 14.1509 21.3508C13.8619 21.2651 13.5813 21.1509 13.3131 21.0097C10.9264 19.8743 8.57441 18.6626 6.23391 17.4309C5.83029 17.2559 5.45749 17.0118 5.13091 16.7087C5.06495 16.6419 5.02116 16.5549 5.00594 16.4604C4.99073 16.3658 5.0049 16.2686 5.04636 16.1831C5.22985 15.9088 5.48642 15.6967 5.78426 15.5732C6.82878 15.0427 7.91215 14.6 9.02407 14.2492C9.98102 13.9363 10.9457 13.6474 11.9141 13.3906C12.2536 13.343 12.5789 13.2184 12.8673 13.0255C13.1014 12.8226 13.2726 12.5517 13.3592 12.2471C13.9819 10.1365 14.7119 8.06189 15.546 6.03225C15.7001 5.60422 15.8891 5.19079 16.1109 4.7965C16.2639 4.47503 16.5064 4.20932 16.8065 4.03418Z" fill="#F5A31B"/>
<path d="M18.5783 12.3113C20.0771 12.1589 21.5875 12.1147 23.0979 12.1147C24.7389 12.1147 26.38 12.1749 28.021 12.2632C28.3361 12.3113 28.7051 12.2431 28.9703 12.4799C28.8451 12.6116 28.6815 12.6963 28.5052 12.7206C28.1905 12.8112 27.8692 12.8743 27.5444 12.9092C26.6259 12.9653 25.7074 13.0456 24.7966 13.178C23.8857 13.3104 22.9941 13.4468 22.1063 13.6434C21.9449 13.6675 21.8604 13.8199 21.7681 13.9403C21.1568 14.8959 20.6611 15.9268 20.2923 17.0096C20.0041 17.812 19.7505 18.6145 19.5237 19.453C19.32 20.1271 19.2201 20.8613 18.8089 21.4591C18.7373 21.55 18.6428 21.6181 18.536 21.6557C18.4139 21.3657 18.3817 21.043 18.4438 20.7329C18.4822 19.9546 18.5091 19.1802 18.5975 18.4099C18.7108 17.0088 18.9685 15.6247 19.3661 14.2813C18.4092 14.5542 17.4445 14.7748 16.4953 15.1118C16.3511 15.166 16.1989 15.1932 16.0456 15.1921C15.888 15.1399 15.8919 14.9433 15.915 14.7909C15.9994 14.3759 16.1283 13.9721 16.2993 13.5872C16.4148 13.2828 16.5742 12.9987 16.772 12.7447C16.8898 12.6043 17.0522 12.5131 17.2293 12.4879C17.6674 12.4197 18.1209 12.3515 18.5783 12.3113Z" fill="#F5A31B"/>
<path d="M27.6904 13.8681C27.8057 13.84 27.9402 13.7878 28.0439 13.8681C28.0824 13.9523 28.017 14.0406 27.9786 14.1088C27.4149 14.8685 26.8538 15.6308 26.2953 16.3958C26.2953 16.6726 26.2953 16.9494 26.2953 17.2263C26.3414 17.7519 26.3222 18.2775 26.3299 18.8031C26.3307 18.8934 26.3075 18.9822 26.2627 19.0594C26.2178 19.1367 26.1533 19.1993 26.0762 19.2404C25.9148 19.2404 25.8917 19.0237 25.8533 18.8913C25.7572 18.3938 25.6381 17.9043 25.5382 17.4068C25.127 17.9766 24.708 18.5383 24.293 19.104C24.1636 19.251 24.0898 19.4421 24.0854 19.6416C24.1748 20.0423 24.3036 20.4322 24.4698 20.8051L26.7757 26.7111C26.9065 26.9974 26.9934 27.3034 27.0332 27.6178C27.0399 27.7193 27.0096 27.8196 26.9482 27.8985C26.8869 27.9775 26.7991 28.0291 26.7027 28.0431C26.3298 28.0626 25.959 27.9752 25.6304 27.7904C24.2545 27.1136 22.8748 26.4449 21.4913 25.7843C20.6919 25.3831 19.8848 25.03 19.0662 24.701C18.7547 24.5215 18.3911 24.4673 18.044 24.5485C17.8032 24.6687 17.5826 24.8286 17.3906 25.022C15.715 26.6268 14.0855 28.3079 12.4214 29.9409C12.1701 30.1932 11.903 30.4277 11.622 30.643C11.3902 30.8461 11.0983 30.9595 10.7957 30.964C10.7185 30.9527 10.6457 30.9199 10.5848 30.8691C10.524 30.8182 10.4773 30.7512 10.4498 30.6751C10.3574 30.4443 10.3154 30.1948 10.3268 29.9449C10.3242 29.0736 10.3833 28.2032 10.5036 27.341C10.696 25.8311 10.9628 24.3326 11.303 22.8514C11.4068 22.4501 11.4759 22.0208 11.6028 21.6156C11.6459 21.4551 11.7295 21.3096 11.8449 21.1943C11.9448 21.1542 12.014 21.2706 12.0486 21.3548C12.1874 21.8634 12.2522 22.3909 12.2407 22.9196C12.3214 23.9387 12.3829 24.9658 12.4521 25.9849C12.4944 26.2617 12.5405 26.6028 12.8134 26.7352C12.9523 26.7245 13.0856 26.6731 13.1977 26.5867C13.525 26.3435 13.8346 26.0753 14.1239 25.7843C15.0616 24.9096 16.0455 24.0992 16.9871 23.2245C17.2979 22.8758 17.7175 22.6539 18.1708 22.5986C18.6668 22.6266 19.1498 22.7749 19.5812 23.0319C20.8418 23.6217 22.0678 24.2877 23.3283 24.8735C23.5158 24.9652 23.7209 25.0105 23.9279 25.0059C24.0257 24.9938 24.1154 24.9429 24.1783 24.8638C24.2413 24.7846 24.2727 24.6833 24.2661 24.5806C24.2231 24.1774 24.1001 23.7879 23.9048 23.4371C23.582 22.727 23.3014 21.9928 23.0055 21.2665C22.8006 20.8416 22.6321 20.3985 22.5021 19.9425C22.4479 19.6501 22.4913 19.3471 22.625 19.0839C22.7862 18.753 22.9807 18.4409 23.2054 18.1531C23.5346 17.6946 23.886 17.254 24.2584 16.8331C23.4244 16.8331 22.5904 16.7849 21.7526 16.7769C21.8095 16.541 21.946 16.3345 22.1369 16.1951C22.249 16.0998 22.3805 16.0326 22.5213 15.9986C23.5205 15.7819 24.5274 15.5973 25.5228 15.3847C25.5943 15.3401 25.6591 15.2846 25.715 15.2202C26.0186 14.9233 26.3145 14.6264 26.6373 14.3536C26.9533 14.1191 27.3115 13.9539 27.6904 13.8681Z" fill="#0A2B4B"/>
<path d="M52.8157 13.9328H54.0148C53.7765 14.4744 53.8841 15.0763 53.8611 15.65L54.0725 15.7423C54.2563 15.795 54.4481 15.8099 54.6374 15.7864L55.1831 15.5978C55.3747 15.5336 55.5739 15.4972 55.775 15.4895C55.775 14.9679 55.848 14.4183 55.6251 13.9328C56.0094 13.9328 56.4168 13.9328 56.8165 13.9328C56.6851 14.2359 56.6258 14.5676 56.6436 14.8997C56.6436 16.6303 56.6436 18.3582 56.6436 20.0835C56.6557 20.3319 56.709 20.5763 56.8011 20.8057H55.6251C55.7673 20.3867 55.8173 19.9396 55.7711 19.4977C55.7711 18.4706 55.7711 17.4475 55.7711 16.4203C55.5784 16.3163 55.36 16.2757 55.1447 16.304C54.9256 16.3521 54.7604 16.5207 54.5221 16.5608C54.3039 16.5793 54.0844 16.552 53.8765 16.4805C53.8765 17.6842 53.8765 18.8878 53.8765 20.1196C53.885 20.3552 53.9372 20.5868 54.0302 20.8017H52.8426C52.9458 20.5745 53.0009 20.3268 53.0041 20.0754V14.5707C52.9868 14.3462 52.9225 14.1285 52.8157 13.9328Z" fill="#F5A31B"/>
<path d="M61.9473 14.0331C62.3464 13.8931 62.775 13.8722 63.1848 13.9729C63.2078 14.3099 63.204 14.655 63.204 14.996C62.991 14.8647 62.7481 14.7954 62.5007 14.7954C62.3741 14.8399 62.2663 14.9293 62.1961 15.048C62.126 15.1667 62.0977 15.3073 62.1164 15.4454C62.2163 16.5247 62.7236 17.5438 62.6122 18.6551C62.5815 18.9947 62.4866 19.3246 62.3329 19.6256C62.1792 19.9265 61.9697 20.1927 61.7167 20.4085C61.3353 20.7327 60.8721 20.9347 60.3831 20.9902C59.9988 21.0183 59.5837 20.9661 59.184 20.9902C59.184 20.589 59.184 20.1878 59.184 19.8187L59.2186 19.8628C59.567 20.0346 59.9537 20.104 60.337 20.0634C60.6593 20.0202 60.9577 19.863 61.1825 19.6181C61.4282 19.3275 61.5813 18.9643 61.6206 18.5789C61.6489 18.0917 61.6035 17.6029 61.4861 17.1305C61.4669 17.0302 61.4438 16.9299 61.4208 16.8296C61.3977 16.7293 61.3939 16.7132 61.3823 16.6571V16.633C61.3477 16.4524 61.3016 16.2759 61.2594 16.0954C61.1794 15.768 61.1508 15.4292 61.1748 15.0923C61.2096 14.8628 61.2983 14.6459 61.4332 14.4611C61.568 14.2762 61.7446 14.1292 61.9473 14.0331Z" fill="#F5A31B"/>
<path d="M32.5391 14.0331H33.9649C34.2069 14.4354 34.5122 14.7921 34.868 15.0883C35.2621 14.8058 35.6012 14.4477 35.8673 14.0331H37.3123C37.1402 14.4572 37.0959 14.9261 37.1855 15.3772C37.2239 15.8426 37.2162 16.316 37.2623 16.7814C37.3084 17.2468 37.3469 17.7443 37.3546 18.2298C37.3546 18.8678 37.443 19.4977 37.5198 20.1276C37.5825 20.4 37.6918 20.6582 37.8427 20.8899H36.4668C36.6478 20.4329 36.6933 19.9298 36.5975 19.4455C36.4822 17.965 36.4015 16.4845 36.2746 15.004C35.825 15.4052 35.3407 15.8065 34.9026 16.2277C34.4184 15.8586 33.9918 15.4253 33.5152 15.0241C33.5152 15.7543 33.4307 16.4805 33.3807 17.2107C33.3038 18.1817 33.2231 19.1526 33.154 20.1276C33.1635 20.2841 33.1906 20.439 33.2347 20.589C33.2693 20.6692 33.3 20.7495 33.3384 20.8297C33.3384 20.8297 33.3384 20.8658 33.3384 20.8779H31.9703C32.1414 20.6326 32.2571 20.35 32.3085 20.0513C32.3853 18.8758 32.4929 17.7002 32.6159 16.5287C32.639 16.1956 32.6159 15.8626 32.639 15.5296C32.6741 15.2541 32.6959 14.9769 32.7043 14.6991C32.6936 14.4676 32.6373 14.2409 32.5391 14.0331Z" fill="#F5A31B"/>
<path d="M38.4574 14.7352C38.4493 14.4918 38.3931 14.2527 38.2922 14.0331H41.6742C41.6742 14.4343 41.6742 14.7954 41.6742 15.1765C41.5275 15.0689 41.3653 14.9863 41.1938 14.9318C40.575 14.9318 39.9563 14.9318 39.3375 14.9318C39.3375 15.1725 39.3375 15.4173 39.3375 15.662C40.0447 15.662 40.7518 15.662 41.4551 15.662V16.5848C40.7518 16.5848 40.0447 16.5848 39.3375 16.5848C39.3375 17.7163 39.3375 18.8517 39.3375 19.9831C39.9563 19.9831 40.575 19.9831 41.1938 19.9831C41.3699 19.928 41.537 19.8455 41.6895 19.7384C41.6895 20.1396 41.6895 20.5087 41.6895 20.8939H38.2845C38.3845 20.6823 38.442 20.4515 38.4536 20.2158C38.4536 18.3809 38.4549 16.5541 38.4574 14.7352Z" fill="#F5A31B"/>
<path d="M42.7004 14.0331H44.1301C44.3756 14.4292 44.682 14.7803 45.0371 15.0722C45.4327 14.8022 45.7693 14.4481 46.0248 14.0331H47.489C47.3267 14.3687 47.274 14.7506 47.3392 15.1204C47.3891 15.9629 47.4314 16.8055 47.4967 17.6481C47.5236 17.9369 47.4967 18.2258 47.5352 18.5147C47.5621 19.0483 47.6389 19.5739 47.6812 20.1196C47.7355 20.4114 47.8539 20.686 48.0271 20.922H46.632C46.8149 20.4615 46.8643 19.9551 46.7742 19.4656C46.6781 17.9891 46.5282 16.5206 46.4706 15.0522C45.9748 15.4534 45.5213 15.8827 45.0294 16.2759C44.6028 15.8747 44.1455 15.4734 43.7112 15.0722C43.6036 16.4685 43.4921 17.8808 43.4076 19.2609C43.2884 19.8154 43.3271 20.3942 43.519 20.926H42.147C42.3038 20.6831 42.4134 20.4105 42.4698 20.1236C42.5813 18.964 42.6543 17.8045 42.7773 16.649C42.808 16.2839 42.7773 15.9148 42.8042 15.5497C42.9213 15.0452 42.885 14.5151 42.7004 14.0331Z" fill="#F5A31B"/>
<path d="M48.815 14.0331H51.2593C51.4121 14.029 51.5639 14.0599 51.704 14.1237C51.8441 14.1875 51.9691 14.2825 52.0702 14.4022C52.1125 14.6007 52.1131 14.8064 52.072 15.0052C52.0308 15.204 51.949 15.3911 51.832 15.5537C51.3653 16.2486 50.8651 16.9181 50.3331 17.5598C50.1535 17.7624 49.9914 17.9813 49.8489 18.2138C49.8489 18.8718 49.8489 19.5298 49.8489 20.1878C49.8516 20.4353 49.9068 20.6792 50.0103 20.9019C49.626 20.9019 49.2186 20.9019 48.8189 20.9019C48.9697 20.5033 49.0251 20.0722 48.9803 19.6461V14.6469C48.9647 14.4275 48.9114 14.2127 48.8227 14.013M49.8527 16.9178C50.3408 16.2919 50.8788 15.7142 51.3477 15.0642L51.2094 14.8837H49.8412C49.8412 15.5657 49.8412 16.2438 49.8412 16.9219L49.8527 16.9178Z" fill="#F5A31B"/>
<path d="M57.3353 14.0331H58.4883C58.4614 14.1013 58.4421 14.1735 58.4191 14.2417C58.3455 14.5988 58.3158 14.9641 58.3307 15.329C58.3307 16.653 58.3307 17.9811 58.3307 19.3051C58.2745 19.8402 58.3335 20.3817 58.5036 20.8899C58.1001 20.8899 57.6966 20.8899 57.293 20.8899C57.3973 20.6812 57.4564 20.4511 57.466 20.2158C57.466 18.5147 57.466 16.8175 57.466 15.1164C57.5044 14.7496 57.4597 14.3785 57.3353 14.0331Z" fill="#F5A31B"/>
<path d="M68.1655 14.0772C68.4954 14.052 68.8222 13.9942 69.1417 13.9047C69.1282 14.0796 69.0761 14.2489 68.9894 14.3993C68.9027 14.5496 68.7838 14.677 68.6421 14.7713C68.2578 15.0281 67.8081 14.9398 67.393 14.9278C67.393 16.7172 67.393 18.5026 67.393 20.2881C67.3998 20.5106 67.4508 20.7292 67.5429 20.93H66.3554C66.4941 20.6124 66.5511 20.2625 66.5206 19.9149C66.5206 18.2499 66.5206 16.5808 66.5206 14.9157C65.9972 14.8509 65.4666 14.9326 64.9834 15.1525C64.9834 14.7914 64.9834 14.4343 64.9834 14.0772H68.1655Z" fill="#0A2B4B"/>
<path d="M86.7472 13.993C87.0636 13.9507 87.3845 13.9643 87.6965 14.0331V15.0843C87.5158 14.9357 87.2924 14.8552 87.0624 14.8556C86.9649 14.8795 86.8764 14.9331 86.808 15.0095C86.7396 15.0859 86.6944 15.1817 86.6781 15.2849C86.6523 15.564 86.677 15.8458 86.7511 16.1154C86.9471 17.0141 87.2853 17.9209 87.1354 18.8557C87.0655 19.3477 86.8606 19.808 86.5455 20.1811C86.2304 20.5542 85.8186 20.824 85.3599 20.9581C84.8295 21.1427 84.2722 21.0143 83.7303 21.0343C83.7303 20.6331 83.7303 20.272 83.7303 19.8869C83.9954 20.02 84.2824 20.099 84.5758 20.1196C84.7792 20.1364 84.9838 20.1095 85.1768 20.0405C85.3698 19.9714 85.5473 19.8618 85.6981 19.7183C86.0141 19.3536 86.1798 18.8736 86.1592 18.3823C86.1704 18.0189 86.1329 17.6556 86.0478 17.303C85.9287 16.7814 85.8057 16.2638 85.7096 15.7383C85.6659 15.5333 85.6617 15.3213 85.6973 15.1146C85.733 14.908 85.8077 14.7108 85.9171 14.5346C86.1175 14.2501 86.4145 14.0563 86.7472 13.993Z" fill="#0A2B4B"/>
<path d="M79.8065 14.0331C80.6751 14.0331 81.5437 14.0331 82.4161 14.0331C82.6536 14.0776 82.873 14.1949 83.0464 14.3701C83.116 14.5681 83.1267 14.7835 83.0771 14.988C82.966 15.3876 82.7934 15.7657 82.566 16.1074C82.3853 16.4283 82.1816 16.7373 82.0049 17.0542C81.9049 17.1866 81.9856 17.3511 82.0279 17.4916C82.3507 18.4384 82.6467 19.3974 82.9618 20.3482C83.0316 20.5548 83.1231 20.7526 83.2347 20.938C82.8504 20.938 82.4968 20.8939 82.1278 20.8899C82.1879 20.5452 82.1408 20.1895 81.9933 19.8748C81.7896 19.2409 81.6513 18.5869 81.4361 17.961C81.2785 18.302 81.0018 18.5749 80.8711 18.9279C80.8288 19.3292 80.8711 19.7023 80.8711 20.0875C80.8602 20.3631 80.9101 20.6377 81.0171 20.8899H79.8219C79.9257 20.6927 79.9836 20.4728 79.991 20.2479C79.991 18.4425 79.991 16.637 79.991 14.8235C80.0011 14.5448 79.9415 14.2683 79.8181 14.021M80.8711 14.8877C80.8711 15.7824 80.8711 16.6771 80.8711 17.5758C81.2939 16.8817 81.6705 16.1595 82.0971 15.4694C82.1966 15.2972 82.2398 15.0958 82.2201 14.8957C81.7666 14.8957 81.3169 14.8957 80.8673 14.8957L80.8711 14.8877Z" fill="#0A2B4B"/>
<path d="M71.4014 14.1093C71.6565 14.0788 71.9134 14.0681 72.17 14.0772C72.5047 14.0776 72.8354 14.153 73.1398 14.2984C73.4441 14.4437 73.715 14.6556 73.9341 14.9198C74.4187 15.5878 74.6769 16.4049 74.6681 17.2428C74.7129 17.9883 74.5809 18.7339 74.2838 19.4134C74.0337 19.9972 73.5863 20.4643 73.0271 20.7254C72.6772 20.8785 72.3016 20.9573 71.9222 20.9573C71.5428 20.9573 71.1672 20.8785 70.8172 20.7254C70.2531 20.429 69.8148 19.9242 69.5874 19.3091C69.3918 18.8148 69.2988 18.2829 69.3146 17.7484C69.2696 17.0017 69.392 16.2544 69.672 15.5657C69.8565 15.1493 70.1412 14.79 70.4983 14.5226C70.7726 14.3464 71.0724 14.2177 71.386 14.1414M71.5474 14.9719C71.2468 15.0545 70.9782 15.2325 70.7788 15.4815C70.3491 16.1092 70.145 16.8749 70.2023 17.644C70.1838 18.2867 70.3704 18.9176 70.7327 19.4375C70.935 19.7348 71.2367 19.9424 71.5782 20.0193C71.8074 20.0765 72.0458 20.0818 72.2772 20.0347C72.5086 19.9877 72.7276 19.8894 72.9195 19.7464C73.385 19.3142 73.683 18.7191 73.7573 18.0733C73.9024 17.2565 73.7663 16.4124 73.373 15.6901C73.1862 15.379 72.9091 15.1384 72.582 15.0034C72.255 14.8684 71.8952 14.8461 71.5551 14.9398L71.5474 14.9719Z" fill="#0A2B4B"/>
<path d="M75.4561 14.0692C75.9172 14.0692 76.3784 14.0692 76.8358 14.0692C76.5568 14.3598 76.3418 14.7102 76.2055 15.0963C76.1166 15.4734 76.1061 15.866 76.1747 16.2478C76.3287 16.9998 76.6499 17.7035 77.1125 18.302C77.4341 18.7453 77.838 19.1165 78.3 19.3933C78.3 18.1375 78.3 16.8857 78.3 15.6339C78.348 15.1039 78.2944 14.5693 78.1425 14.0611H79.2954C79.1672 14.4888 79.124 14.9394 79.1686 15.3851V20.4124C79.1774 20.63 79.2368 20.842 79.3415 21.0303C78.1252 20.6598 77.0647 19.8708 76.3323 18.7915C75.8831 18.1926 75.5431 17.5126 75.3292 16.7854C75.195 16.2828 75.1675 15.7556 75.2485 15.2407C75.348 14.9667 75.4151 14.6811 75.4484 14.3901C75.4599 14.2898 75.4561 14.1815 75.4561 14.0692Z" fill="#0A2B4B"/>
</svg>
