<svg width="17" height="17" viewBox="0 0 17 17" fill="none" xmlns="http://www.w3.org/2000/svg">
<path d="M8.86719 16.8281C13.2266 16.8281 16.8359 13.2109 16.8359 8.85938C16.8359 4.5 13.2188 0.890625 8.85938 0.890625C4.50781 0.890625 0.898438 4.5 0.898438 8.85938C0.898438 13.2109 4.51562 16.8281 8.86719 16.8281ZM9.67969 11.4375C9.17188 11.9766 8.58594 11.9766 8.07812 11.4375L4.92188 8.08594C4.67188 7.82812 4.67188 7.46094 4.89062 7.22656C5.14062 6.96875 5.53125 6.96875 5.75781 7.21094L8.875 10.5156L11.9922 7.21094C12.2266 6.96875 12.6094 6.97656 12.8672 7.22656C13.0938 7.45312 13.0781 7.82812 12.8359 8.08594L9.67969 11.4375Z" fill="#3D3D3D"/>
</svg>
