<svg width="265" height="64" viewBox="0 0 265 64" fill="none" xmlns="http://www.w3.org/2000/svg">
<path d="M0.534996 13.2262V4.13129H46.9013V13.2262H26.616L28.9789 10.8187V62H18.4574V10.8187L20.8203 13.2262H0.534996ZM48.0862 62V18.5762H58.6078V62H48.0862ZM56.022 43.0076C56.022 37.3307 56.661 32.6347 57.9391 28.9194C59.2171 25.2042 60.9261 22.4549 63.0661 20.6716C65.2358 18.8585 67.6433 17.952 70.2886 17.952C71.0019 17.952 71.6706 17.9966 72.2948 18.0858C72.9487 18.1749 73.5877 18.3087 74.2119 18.487L74.0335 29.0086C73.2608 28.8303 72.4285 28.6816 71.5369 28.5628C70.6452 28.4439 69.8427 28.3844 69.1294 28.3844C66.8111 28.3844 64.8643 28.9491 63.289 30.0786C61.7435 31.1783 60.5695 32.813 59.767 34.9827C58.9942 37.1524 58.6078 39.8274 58.6078 43.0076H56.022ZM110.643 62L109.306 51.4784V34.0911C109.306 31.0594 108.681 28.8154 107.433 27.359C106.215 25.9026 104.134 25.1745 101.192 25.1745C99.4974 25.1745 98.0261 25.4271 96.7778 25.9324C95.5295 26.4376 94.5635 27.1658 93.8799 28.1169C93.226 29.0383 92.8991 30.1678 92.8991 31.5052H81.3967C81.3967 28.2358 82.1843 25.5757 83.7596 23.5249C85.3348 21.4443 87.5937 19.9285 90.5362 18.9774C93.5084 17.9966 97.0602 17.5062 101.192 17.5062C104.936 17.5062 108.206 18.1155 111 19.3341C113.794 20.523 115.963 22.3657 117.509 24.8624C119.054 27.359 119.827 30.5541 119.827 34.4477V62H110.643ZM96.4657 63.2483C92.7505 63.2483 89.6445 62.6093 87.1479 61.3313C84.681 60.0235 82.8233 58.3145 81.575 56.2042C80.3267 54.094 79.7025 51.8054 79.7025 49.3384C79.7025 46.604 80.4159 44.3154 81.8425 42.4727C83.2989 40.6002 85.3497 39.2032 87.995 38.2819C90.6402 37.3308 93.761 36.8552 97.3574 36.8552C99.7054 36.8552 101.92 37.0335 104 37.3902C106.111 37.7469 108.206 38.2224 110.286 38.8168V44.9693C108.652 44.4343 106.868 44.0182 104.936 43.721C103.005 43.4238 101.192 43.2751 99.4974 43.2751C97.0007 43.2751 94.9499 43.7358 93.3449 44.6572C91.7399 45.5786 90.9374 47.139 90.9374 49.3384C90.9374 50.9434 91.5913 52.3255 92.8991 53.4846C94.2069 54.6438 96.2874 55.2234 99.1407 55.2234C101.31 55.2234 103.153 54.7478 104.669 53.7967C106.185 52.8456 107.329 51.6567 108.102 50.2301C108.904 48.8034 109.306 47.3768 109.306 45.9501H111.802C111.802 49.0709 111.223 51.954 110.064 54.5992C108.904 57.2148 107.181 59.3102 104.892 60.8854C102.633 62.4607 99.8243 63.2483 96.4657 63.2483ZM197.626 63.2483C193.94 63.2483 190.567 62.2972 187.506 60.395C184.444 58.4928 181.992 55.8327 180.149 52.4147C178.307 48.9669 177.385 44.9396 177.385 40.3327C177.385 35.5772 178.292 31.4904 180.105 28.0723C181.948 24.6543 184.4 22.0388 187.461 20.2257C190.522 18.4127 193.911 17.5062 197.626 17.5062C201.074 17.5062 204.046 18.2047 206.542 19.6016C209.069 20.9688 211.09 22.8413 212.606 25.219C214.151 27.5671 215.192 30.2272 215.727 33.1994C216.262 36.1716 216.291 39.233 215.816 42.3835H185.767V36.6769H208.37L206.32 38.0144C206.409 36.6174 206.334 35.2056 206.097 33.779C205.889 32.3523 205.473 31.0445 204.848 29.8557C204.224 28.6668 203.333 27.7157 202.173 27.0024C201.044 26.2593 199.588 25.8878 197.804 25.8878C195.664 25.8878 193.851 26.4228 192.365 27.4928C190.879 28.5628 189.75 30.0191 188.977 31.8619C188.204 33.7047 187.818 35.7852 187.818 38.1035V42.2943C187.818 44.7315 188.174 46.8864 188.888 48.7589C189.631 50.6313 190.716 52.1026 192.142 53.1726C193.599 54.2426 195.426 54.7776 197.626 54.7776C199.677 54.7776 201.401 54.302 202.798 53.3509C204.194 52.3998 205.086 50.9731 205.473 49.0709H216.083C215.637 51.8648 214.582 54.3317 212.918 56.4717C211.283 58.582 209.158 60.2464 206.542 61.465C203.927 62.6539 200.955 63.2483 197.626 63.2483ZM228.769 62V0.832146H239.291V62H228.769ZM249.785 55.8475C249.785 53.8265 250.468 52.1323 251.835 50.7651C253.203 49.3979 254.956 48.7143 257.096 48.7143C259.236 48.7143 261.019 49.3979 262.446 50.7651C263.873 52.1323 264.586 53.8265 264.586 55.8475C264.586 57.8389 263.873 59.5034 262.446 60.8408C261.019 62.1486 259.236 62.8025 257.096 62.8025C254.956 62.8025 253.203 62.1337 251.835 60.7963C250.468 59.4588 249.785 57.8092 249.785 55.8475Z" fill="white"/>
<path d="M128.027 18.7545H140.154L150.497 52.9942H149.694L160.038 18.7545H172.164L156.025 62H144.166L128.027 18.7545Z" fill="#F2B705"/>
</svg>
